#!OML:ASF F:\twosubjects\two\Thursday\Session 1\justin.ASF
:FULLY-SPECIFIED
:DEGREES
464
root 13.4831 9.40768 -16.3433 7.21945 -74.9816 -4.22469
lowerback 28.5075 2.22829 0.659525
upperback 7.15558 2.90467 4.43579
thorax -7.90465 1.1408 3.61201
lowerneck -20.1862 9.52027 -0.933414
upperneck 12.2026 13.8797 -4.39988
head 7.27026 6.18066 0.377796
rclavicle 1.59028e-015 -1.90833e-014
rhumerus -25.9395 -27.2027 -61.4387
rradius 38.9092
rwrist -6.19138
rhand -13.9893 14.7389
rfingers 7.12502
rthumb 12.1394 -14.8889
lclavicle 1.59028e-015 -1.90833e-014
lhumerus -26.7123 13.5997 77.0388
lradius 37.808
lwrist -12.7329
lhand 0.031112 36.9186
lfingers 7.12502
lthumb 25.6202 65.2151
rfemur -84.1523 -55.4379 23.4084
rtibia 141.487
rfoot -34.9951 26.2769
rtoes -20.7626
lfemur -85.6696 56.0007 -18.9715
ltibia 137.99
lfoot -36.9385 -36.5612
ltoes -5.84321
465
root 13.464 9.264 -16.305 5.90376 -75.5092 -3.34396
lowerback 28.6683 2.28953 0.607408
upperback 7.42174 2.92024 4.28981
thorax -7.67783 1.13513 3.47185
lowerneck -20.155 9.6403 -1.04757
upperneck 12.0232 14.0352 -4.268
head 7.18894 6.27218 0.446565
rclavicle 5.56597e-015 4.77083e-015
rhumerus -25.6238 -26.7794 -61.7851
rradius 38.571
rwrist -7.25168
rhand -15.0676 15.8002
rfingers 7.12502
rthumb 11.0995 -13.8862
lclavicle 5.56597e-015 4.77083e-015
lhumerus -26.4846 13.9165 76.8419
lradius 37.6523
lwrist -13.227
lhand 0.610705 36.3468
lfingers 7.12502
lthumb 26.1752 64.5622
rfemur -84.58 -57.2492 22.5407
rtibia 142.556
rfoot -35.2926 27.708
rtoes -21.1152
lfemur -86.2124 59.9955 -19.4901
ltibia 139.349
lfoot -39.5439 -36.7734
ltoes -8.15791
466
root 13.4445 9.14003 -16.2815 5.32596 -75.9146 -3.42094
lowerback 29.1847 2.33044 0.597784
upperback 7.64227 2.94024 4.29408
thorax -7.67988 1.12819 3.47245
lowerneck -19.7022 9.78735 -1.13948
upperneck 11.4046 14.2381 -4.48285
head 6.9259 6.38203 0.375623
rclavicle -2.70347e-014 4.6118e-014
rhumerus -25.295 -25.3879 -62.5172
rradius 38.3337
rwrist -11.5312
rhand -17.6948 17.4469
rfingers 7.12502
rthumb 8.56486 -12.3594
lclavicle -2.70347e-014 4.6118e-014
lhumerus -26.5516 14.597 76.5444
lradius 37.5963
lwrist -14.2609
lhand 1.70694 35.6693
lfingers 7.12502
lthumb 27.2243 63.7247
rfemur -84.0872 -58.8974 21.5633
rtibia 143.443
rfoot -35.8791 28.4608
rtoes -21.8473
lfemur -86.1934 63.6767 -19.0749
ltibia 140.469
lfoot -41.1591 -37.7112
ltoes -8.12599
467
root 13.4579 8.99146 -16.3034 5.56158 -75.5921 -3.69268
lowerback 29.3551 2.25152 0.470398
upperback 7.63006 2.81772 4.42173
thorax -7.78115 1.07042 3.73302
lowerneck -19.7691 9.84463 -1.04783
upperneck 11.5171 14.304 -4.49623
head 6.98197 6.41001 0.373432
rclavicle -2.3059e-014 -3.02153e-014
rhumerus -25.3214 -26.5702 -62.073
rradius 38.3727
rwrist -7.66536
rhand -16.1876 15.5564
rfingers 7.12502
rthumb 10.0191 -14.1851
lclavicle -2.3059e-014 -3.02153e-014
lhumerus -26.5379 15.1627 76.347
lradius 37.5432
lwrist -15.0723
lhand 2.31196 35.2571
lfingers 7.12502
lthumb 27.8029 63.2204
rfemur -86.0643 -60.5784 22.7938
rtibia 144.688
rfoot -35.8117 28.5444
rtoes -21.7282
lfemur -88.562 64.6986 -19.7316
ltibia 141.667
lfoot -39.6885 -39.7185
ltoes -5.49137
468
root 13.46 8.86598 -16.3182 4.80152 -75.5444 -3.43099
lowerback 29.8819 2.32848 0.175757
upperback 7.77544 2.82254 4.52578
thorax -7.88881 1.06424 4.01901
lowerneck -20.0507 9.91952 -0.885264
upperneck 11.9066 14.3899 -4.44736
head 7.16432 6.43969 0.402666
rclavicle -3.81667e-014 3.10104e-014
rhumerus -25.2785 -27.0803 -61.8636
rradius 38.3148
rwrist -6.35108
rhand -15.4301 15.2163
rfingers 7.12502
rthumb 10.7499 -14.4887
lclavicle -3.81667e-014 3.10104e-014
lhumerus -26.6137 15.5158 76.4114
lradius 38.1378
lwrist -15.0335
lhand 1.81553 35.6717
lfingers 7.12502
lthumb 27.3282 63.7108
rfemur -86.7485 -62.2 22.7808
rtibia 145.814
rfoot -36.2065 28.7344
rtoes -22.4591
lfemur -88.9658 66.5791 -19.2389
ltibia 142.684
lfoot -40.3768 -40.4521
ltoes -5.88344
469
root 13.4505 8.74313 -16.3219 3.95964 -75.6832 -3.22413
lowerback 30.4073 2.45064 -0.077265
upperback 7.93639 2.89139 4.64306
thorax -7.97969 1.08601 4.27383
lowerneck -19.4608 10.0231 -0.875785
upperneck 11.2736 14.5109 -4.70752
head 6.8849 6.51507 0.286045
rclavicle -3.81667e-014 -5.24792e-014
rhumerus -25.3218 -26.9637 -61.7576
rradius 38.3566
rwrist -6.53587
rhand -15.4967 15.3582
rfingers 7.12502
rthumb 10.6857 -14.3501
lclavicle -3.81667e-014 -5.24792e-014
lhumerus -26.7879 15.6613 76.6174
lradius 38.7109
lwrist -14.7333
lhand 0.500663 36.635
lfingers 7.12502
lthumb 26.0698 64.8659
rfemur -87.0278 -64.1204 22.5031
rtibia 146.919
rfoot -37.4979 28.3091
rtoes -25.2024
lfemur -88.9191 69.5217 -18.5787
ltibia 143.698
lfoot -42.7276 -40.2246
ltoes -7.37174
470
root 13.4439 8.59731 -16.3082 3.27304 -75.7402 -2.69619
lowerback 30.387 2.38508 -0.183982
upperback 8.12231 2.75351 4.68096
thorax -7.75393 1.01071 4.42977
lowerneck -19.4487 10.1344 -1.23105
upperneck 10.8103 14.7173 -4.71672
head 6.71001 6.61931 0.340805
rclavicle -2.3059e-014 0
rhumerus -24.9444 -26.8024 -61.968
rradius 38.2401
rwrist -6.47918
rhand -16.2185 15.7342
rfingers 7.12502
rthumb 9.9894 -14.0087
lclavicle -2.3059e-014 0
lhumerus -25.9001 15.7365 76.7976
lradius 37.0969
lwrist -14.623
lhand -1.05179 36.3657
lfingers 7.12502
lthumb 24.5826 64.8074
rfemur -88.7804 -66.0262 22.8135
rtibia 148.059
rfoot -37.7075 28.9779
rtoes -25.9831
lfemur -91.1759 72.4758 -20.0331
ltibia 144.942
lfoot -44.2982 -40.3931
ltoes -7.8821
471
root 13.4347 8.46901 -16.3067 2.84 -75.7244 -2.6779
lowerback 30.6949 2.41372 -0.039289
upperback 8.32384 2.799 4.62133
thorax -7.66334 1.01714 4.26006
lowerneck -19.9176 10.1061 -1.07123
upperneck 11.08 14.6481 -4.58752
head 6.87291 6.58146 0.382211
rclavicle -3.02153e-014 -3.81667e-014
rhumerus -24.9151 -27.5015 -62.0198
rradius 37.9045
rwrist -5.87968
rhand -16.5535 16.433
rfingers 7.12502
rthumb 9.66616 -13.3252
lclavicle -3.02153e-014 -3.81667e-014
lhumerus -26.3384 15.1921 76.9028
lradius 38.9508
lwrist -14.2302
lhand -0.779022 37.3108
lfingers 7.12502
lthumb 24.844 65.7167
rfemur -89.0262 -67.9581 22.2039
rtibia 148.958
rfoot -37.9616 30.0653
rtoes -25.911
lfemur -92.553 75.2801 -20.4463
ltibia 146.036
lfoot -46.0342 -40.4097
ltoes -10.1467
472
root 13.4229 8.34987 -16.3185 2.61065 -75.6631 -3.13121
lowerback 31.3878 2.52001 0.185563
upperback 8.46804 2.97757 4.59336
thorax -7.82428 1.08564 4.02915
lowerneck -20.2811 10.041 -0.806632
upperneck 11.4316 14.495 -4.41648
head 7.04875 6.51193 0.409023
rclavicle 2.06736e-014 1.90833e-014
rhumerus -25.2827 -28.361 -61.9044
rradius 37.8912
rwrist -5.35691
rhand -17.1949 16.6185
rfingers 7.12502
rthumb 9.04732 -13.1674
lclavicle 2.06736e-014 1.90833e-014
lhumerus -25.9571 14.349 76.9809
lradius 38.8
lwrist -13.7985
lhand -0.190644 37.5113
lfingers 7.12502
lthumb 25.4078 65.8382
rfemur -87.8703 -70.1632 20.7256
rtibia 149.762
rfoot -38.3701 30.9733
rtoes -24.8053
lfemur -92.6716 78.0971 -19.4113
ltibia 146.978
lfoot -48.4312 -39.6685
ltoes -15.241
473
root 13.4218 8.20558 -16.3103 3.37631 -75.6152 -4.15927
lowerback 31.6182 2.31964 0.513987
upperback 8.43186 2.8363 4.72367
thorax -7.95326 1.01254 4.0396
lowerneck -19.7178 10.0633 -1.43779
upperneck 10.9904 14.5919 -4.09207
head 6.74195 6.59651 0.564641
rclavicle -1.11319e-014 6.99722e-014
rhumerus -25.3721 -27.789 -61.8954
rradius 38.0211
rwrist -5.68704
rhand -18.0272 16.38
rfingers 7.12502
rthumb 8.24404 -13.4391
lclavicle -1.11319e-014 6.99722e-014
lhumerus -25.7337 14.5828 76.9053
lradius 37.8548
lwrist -13.7709
lhand 0.404716 36.9161
lfingers 7.12502
lthumb 25.978 65.1606
rfemur -89.151 -71.7403 21.1408
rtibia 150.772
rfoot -37.7523 31.7103
rtoes -23.0555
lfemur -97.3019 80.9562 -22.5041
ltibia 148.155
lfoot -50.2699 -39.0849
ltoes -19.3602
474
root 13.4223 8.06677 -16.298 3.49001 -75.6581 -4.37531
lowerback 31.6947 2.41878 0.934583
upperback 8.41486 3.08424 4.61253
thorax -7.99687 1.12643 3.57328
lowerneck -19.265 9.82467 -1.14345
upperneck 10.4264 14.1571 -4.18424
head 6.50858 6.42423 0.40384
rclavicle -1.27222e-014 1.43125e-014
rhumerus -25.9692 -28.2928 -61.6484
rradius 38.0982
rwrist -6.11982
rhand -17.6959 15.9874
rfingers 7.12502
rthumb 8.56382 -13.8189
lclavicle -1.27222e-014 1.43125e-014
lhumerus -25.2359 13.8152 76.9218
lradius 37.491
lwrist -13.5354
lhand 0.300274 36.389
lfingers 7.12502
lthumb 25.878 64.6482
rfemur -91.7406 -73.1946 22.4885
rtibia 151.852
rfoot -37.3456 31.8996
rtoes -22.8829
lfemur -105.015 83.355 -29.0122
ltibia 149.259
lfoot -50.9764 -39.6672
ltoes -19.4039
475
root 13.4226 7.934 -16.304 1.88445 -75.616 -2.8476
lowerback 31.8084 2.46406 0.427705
upperback 8.44598 2.98644 4.63378
thorax -8.03585 1.08385 3.92963
lowerneck -19.1142 9.91331 -0.864816
upperneck 10.1503 14.2535 -4.63028
head 6.45207 6.45498 0.223585
rclavicle 2.3059e-014 -4.77083e-015
rhumerus -25.8497 -28.2042 -61.6655
rradius 38.0318
rwrist -6.12275
rhand -17.1348 15.4496
rfingers 7.12502
rthumb 9.10531 -14.3339
lclavicle 2.3059e-014 -4.77083e-015
lhumerus -25.2141 13.9494 76.9968
lradius 37.7027
lwrist -13.0348
lhand -0.038295 36.8572
lfingers 7.12502
lthumb 25.5537 65.1632
rfemur -95.0711 -75.1123 24.2567
rtibia 152.935
rfoot -37.5429 31.8463
rtoes -23.9484
lfemur -113.548 84.8639 -36.7867
ltibia 150.212
lfoot -50.8971 -40.8962
ltoes -17.2913
476
root 13.4241 7.80252 -16.322 1.03583 -75.3064 -2.1478
lowerback 32.2803 2.43924 0.0093728
upperback 8.06417 2.84445 4.9522
thorax -8.0415 0.985967 4.25208
lowerneck -18.9816 10.0481 -0.677703
upperneck 10.0562 14.4255 -4.92616
head 6.44087 6.52529 0.117718
rclavicle -4.37326e-014 2.70347e-014
rhumerus -25.7704 -27.9797 -61.6163
rradius 38.067
rwrist -6.13736
rhand -16.8848 14.6693
rfingers 7.12502
rthumb 9.34654 -15.1035
lclavicle -4.37326e-014 2.70347e-014
lhumerus -25.2789 14.0734 77.1386
lradius 37.861
lwrist -12.7586
lhand -0.205131 37.4024
lfingers 7.12502
lthumb 25.3939 65.7312
rfemur -98.4625 -77.1593 26.4736
rtibia 154.032
rfoot -37.8162 32.0726
rtoes -24.4518
lfemur -121.938 85.3694 -43.8573
ltibia 151.156
lfoot -50.1967 -42.3342
ltoes -15.2228
477
root 13.4194 7.68677 -16.3417 1.51732 -75.0716 -3.06025
lowerback 32.6226 2.41034 0.0426576
upperback 8.13361 2.8243 5.15805
thorax -8.11145 0.964628 4.45633
lowerneck -18.8596 10.1597 -0.494744
upperneck 10.0253 14.5562 -5.11608
head 6.44254 6.58266 0.0426211
rclavicle 7.95139e-015 -4.45278e-014
rhumerus -25.8203 -28.0258 -61.5633
rradius 38.0897
rwrist -6.33522
rhand -16.6992 14.3642
rfingers 7.12502
rthumb 9.52563 -15.4004
lclavicle 7.95139e-015 -4.45278e-014
lhumerus -25.2937 14.0621 77.2438
lradius 37.9322
lwrist -12.8966
lhand -0.218703 37.582
lfingers 7.12502
lthumb 25.3809 65.9126
rfemur -99.9178 -78.8537 27.5572
rtibia 154.964
rfoot -37.9257 32.4234
rtoes -23.8831
lfemur -128.915 85.752 -48.8725
ltibia 152.023
lfoot -49.2972 -44.0299
ltoes -13.8927
